<svg width="36" height="36" viewBox="0 0 36 36" fill="none" xmlns="http://www.w3.org/2000/svg">
<path d="M18 28.5416C23.822 28.5416 28.5416 23.822 28.5416 18C28.5416 12.178 23.822 7.45831 18 7.45831C12.178 7.45831 7.45831 12.178 7.45831 18C7.45831 23.822 12.178 28.5416 18 28.5416Z" fill="#1877F2"/>
<path d="M22.1035 21.047L22.571 18H19.6473V16.0227C19.6473 15.189 20.0556 14.3764 21.3651 14.3764H22.6943V11.7822C21.9138 11.6559 21.1252 11.587 20.3348 11.576C17.9267 11.576 16.3528 13.0353 16.3528 15.6776V18H13.6761V21.047H16.3528V28.4133C17.4443 28.5844 18.5558 28.5844 19.6473 28.4133V21.047H22.1035Z" fill="white"/>
</svg>
