<svg width="79" height="21" viewBox="0 0 79 21" fill="none" xmlns="http://www.w3.org/2000/svg">
<path d="M10.5657 16.3752H8.78884V12.1165C8.78884 11.6161 8.66728 11.2352 8.42416 10.9758C8.18104 10.7165 7.88321 10.5868 7.53069 10.5868C7.2592 10.5868 7.0019 10.6294 6.75878 10.7165C6.51565 10.8016 6.28064 10.9434 6.04967 11.142C6.12261 11.4297 6.1611 11.7558 6.1611 12.1165V16.3752H4.38429V12.1165C4.38429 11.6161 4.26273 11.2352 4.01961 10.9758C3.77649 10.7165 3.48271 10.5868 3.13627 10.5868C2.86478 10.5868 2.62571 10.6355 2.42108 10.7287C2.21443 10.8239 2.0017 10.9738 1.77884 11.1805V16.3772H0V9.23954H1.77681L1.77884 9.77036C2.0017 9.55763 2.26306 9.38339 2.56291 9.2517C2.86275 9.12001 3.17071 9.05315 3.48271 9.05315C3.82916 9.05315 4.17764 9.13216 4.52611 9.28817C4.87661 9.44417 5.18254 9.67108 5.44592 9.96891C5.81668 9.64069 6.19149 9.40365 6.57036 9.26385C6.94922 9.12406 7.36455 9.05315 7.81838 9.05315C8.18914 9.05315 8.54167 9.10785 8.87393 9.21928C9.20822 9.33071 9.49794 9.50698 9.74512 9.7501C9.99229 9.99322 10.1908 10.3012 10.3387 10.676C10.4866 11.0508 10.5616 11.5006 10.5616 12.0273V16.3752H10.5657Z" fill="white"/>
<path d="M18.3901 9.22739L15.1809 17.7083C14.9418 18.3424 14.6298 18.7983 14.2429 19.0779C13.8559 19.3574 13.396 19.4972 12.8611 19.4972C12.7781 19.4972 12.6889 19.4912 12.5896 19.479C12.4904 19.4648 12.3972 19.4466 12.306 19.4223L11.7124 17.7691C11.8522 17.8339 11.996 17.8866 12.1439 17.923C12.2918 17.9615 12.4316 17.9777 12.5633 17.9777C12.8429 17.9777 13.0982 17.9149 13.3291 17.7873C13.5601 17.6596 13.7364 17.4226 13.8599 17.0782L14.1071 16.363L11.3558 9.22739H13.2927L14.9337 13.8183L16.4755 9.22739H18.3901Z" fill="white"/>
<path d="M23.1674 16.2131C22.9871 16.3286 22.7764 16.4157 22.5374 16.4724C22.2983 16.5312 22.0612 16.5595 21.8222 16.5595C21.4028 16.5595 21.0482 16.5089 20.7605 16.4055C20.4729 16.3022 20.2419 16.1442 20.0697 15.9315C19.8975 15.7167 19.7719 15.4452 19.6928 15.117C19.6138 14.7868 19.5753 14.4018 19.5753 13.9561V10.832H18.6373V10.0297C19.2127 9.79062 19.6807 9.43607 20.0393 8.96806C20.3979 8.49802 20.641 7.89022 20.7727 7.14059H21.3521V9.22536H23.1533V10.83H21.3521V14.0756C21.3521 14.2559 21.3744 14.4038 21.421 14.5193C21.4656 14.6348 21.5264 14.724 21.5993 14.7908C21.6723 14.8556 21.7573 14.9022 21.8526 14.9266C21.9478 14.9509 22.0491 14.9651 22.1544 14.9651C22.2942 14.9651 22.4624 14.9407 22.6609 14.8901C22.8575 14.8415 23.0277 14.7584 23.1674 14.6429V16.2131Z" fill="white"/>
<path d="M31.5855 12.8073C31.5855 13.3422 31.4863 13.8386 31.2897 14.2944C31.0912 14.7503 30.8197 15.1454 30.4753 15.4797C30.1308 15.814 29.7236 16.0773 29.2597 16.2698C28.7957 16.4643 28.2993 16.5595 27.7726 16.5595C27.2458 16.5595 26.7515 16.4623 26.2916 16.2698C25.8296 16.0773 25.4265 15.8119 25.082 15.4736C24.7356 15.1373 24.4641 14.7381 24.2676 14.2823C24.069 13.8244 23.9718 13.3341 23.9718 12.8073C23.9718 12.2887 24.0731 11.8004 24.2736 11.3446C24.4742 10.8887 24.7498 10.4896 25.0942 10.1472C25.4406 9.8048 25.8438 9.53737 26.3037 9.34489C26.7636 9.15242 27.2539 9.05518 27.7726 9.05518C28.2993 9.05518 28.7957 9.15242 29.2597 9.34489C29.7236 9.53737 30.1308 9.80075 30.4753 10.135C30.8217 10.4693 31.0932 10.8664 31.2897 11.3263C31.4863 11.7883 31.5855 12.2806 31.5855 12.8073ZM29.8067 12.8073C29.8067 12.5034 29.754 12.2198 29.6466 11.9564C29.5393 11.693 29.3954 11.4621 29.209 11.2635C29.0246 11.067 28.8099 10.913 28.5627 10.8016C28.3176 10.6902 28.0542 10.6355 27.7746 10.6355C27.495 10.6355 27.2337 10.6902 26.9865 10.8016C26.7413 10.913 26.5245 11.067 26.3402 11.2635C26.1558 11.4621 26.0099 11.691 25.9026 11.9564C25.7952 12.2198 25.7425 12.5034 25.7425 12.8073C25.7425 13.1113 25.7972 13.3949 25.9026 13.6583C26.0079 13.9217 26.1538 14.1526 26.3402 14.3512C26.5245 14.5477 26.7393 14.7017 26.9865 14.8131C27.2337 14.9245 27.495 14.9792 27.7746 14.9792C28.0542 14.9792 28.3155 14.9245 28.5627 14.8131C28.8079 14.7017 29.0246 14.5477 29.209 14.3512C29.3934 14.1526 29.5393 13.9237 29.6466 13.6583C29.754 13.3969 29.8067 13.1113 29.8067 12.8073Z" fill="white"/>
<path d="M39.0149 16.3752H37.2381V15.8322C37.1226 15.9477 36.9889 16.049 36.837 16.1361C36.685 16.2232 36.5249 16.2961 36.3548 16.3569C36.1866 16.4197 36.0124 16.4663 35.8361 16.4987C35.6598 16.5312 35.4917 16.5494 35.3357 16.5494C34.973 16.5494 34.6266 16.4927 34.2923 16.3772C33.96 16.2617 33.6642 16.0854 33.4089 15.8464C33.1537 15.6073 32.949 15.2993 32.7991 14.9205C32.6472 14.5416 32.5702 14.0939 32.5702 13.5752V9.23954H34.347V13.4861C34.347 13.7413 34.3855 13.9662 34.4645 14.1587C34.5415 14.3532 34.6448 14.5133 34.7724 14.6409C34.9001 14.7685 35.048 14.8617 35.2161 14.9245C35.3843 14.9853 35.5585 15.0157 35.7409 15.0157C36.3163 15.0157 36.8147 14.8192 37.234 14.4241V9.23954H39.0109V16.3752H39.0149Z" fill="white"/>
<path d="M45.6177 9.98106L44.6675 11.4864C44.4953 11.298 44.3028 11.1318 44.0941 10.988C43.8834 10.8441 43.6727 10.7712 43.458 10.7712C43.3425 10.7712 43.2169 10.7975 43.0811 10.8522C42.9454 10.907 42.8177 10.9941 42.6982 11.1177C42.5787 11.2412 42.4774 11.4033 42.3963 11.6059C42.3133 11.8085 42.2727 12.0557 42.2727 12.3535V16.3772H40.4959V9.23954H42.2727V10.0054C42.4855 9.70147 42.7225 9.46646 42.9818 9.30235C43.2412 9.13824 43.5309 9.05518 43.853 9.05518C44.165 9.05518 44.473 9.14027 44.7728 9.30843C45.0727 9.47659 45.3543 9.70147 45.6177 9.98106Z" fill="white"/>
<path d="M54.5625 9.23954L51.8841 16.3873H50.1316L47.4411 9.23954H49.3901L51.0069 14.029L52.6236 9.23954H54.5625Z" fill="white"/>
<path d="M47.3925 15.4128C47.3925 15.9416 46.965 16.3691 46.4362 16.3691C45.9074 16.3691 45.4799 15.9416 45.4799 15.4128C45.4799 14.884 45.9074 14.4565 46.4362 14.4565C46.963 14.4565 47.3925 14.886 47.3925 15.4128Z" fill="white"/>
<path d="M61.8562 16.205V12.0314C61.8562 11.5127 61.7772 11.065 61.6212 10.6861C61.4651 10.3073 61.2565 9.9993 60.9971 9.76023C60.7378 9.52116 60.442 9.34489 60.1097 9.22941C59.7755 9.11393 59.429 9.0572 59.0664 9.0572C58.9022 9.0572 58.7321 9.07341 58.5538 9.10583C58.3775 9.13824 58.2033 9.18687 58.0351 9.24765C57.867 9.30843 57.7028 9.38541 57.5468 9.47456C57.3908 9.56573 57.2591 9.66501 57.1518 9.77036L57.1396 9.23954H55.3628V16.3731H57.1396V11.1784C57.3544 10.9738 57.5934 10.8239 57.8588 10.7266C58.1222 10.6334 58.3917 10.5848 58.6652 10.5848C58.8475 10.5848 59.0238 10.6152 59.192 10.678C59.3622 10.7388 59.5121 10.834 59.6438 10.9617C59.7755 11.0893 59.8808 11.2493 59.9598 11.4418C60.0388 11.6363 60.0773 11.8592 60.0773 12.1145V16.3731C60.0794 16.3752 60.6122 16.1219 61.8562 16.205Z" fill="white"/>
<path fill-rule="evenodd" clip-rule="evenodd" d="M63.2177 8.68645C63.2643 8.54463 63.3068 8.39876 63.3615 8.25694C63.6897 7.40196 64.0646 6.56724 64.5427 5.7852C64.8588 5.26654 65.1829 4.74788 65.5456 4.25961C66.046 3.58698 66.6072 2.96094 67.2738 2.44228C67.5594 2.22145 67.8552 2.01277 68.147 1.79801C68.1672 1.7818 68.1834 1.76154 68.1875 1.71089C68.149 1.7271 68.1044 1.73723 68.07 1.75952C67.5351 2.14041 66.9881 2.50104 66.4735 2.90826C65.5982 3.59913 64.7838 4.36294 64.0666 5.21792C63.635 5.7305 63.242 6.27752 62.8571 6.82657C62.6646 7.09806 62.5288 7.41006 62.3566 7.72004C61.1977 6.61181 59.8363 6.41124 58.2945 6.87925C59.196 4.48855 60.7156 2.66312 62.8976 1.40902C66.4046 -0.602815 70.8213 -0.507592 74.2736 2.00061C77.343 4.22922 78.8281 8.00166 78.5283 11.2413C77.3005 10.4248 76.014 10.2566 74.6403 10.8989C74.693 9.89395 74.535 8.93565 74.3223 7.98342C74.1075 7.02512 73.8218 6.0891 73.4409 5.18145C73.0682 4.29608 72.6528 3.43705 72.1463 2.6226C72.1281 2.63273 72.1078 2.64286 72.0896 2.65299C72.199 2.86369 72.3124 3.07034 72.4158 3.2851C72.8412 4.17047 73.0945 5.10851 73.2606 6.07289C73.4227 7.01094 73.526 7.95506 73.5645 8.90526C73.5929 9.61234 73.5686 10.3174 73.4652 11.0184C73.4551 11.0913 73.447 11.1643 73.4369 11.2575C72.1443 9.83317 70.6045 8.85258 68.7386 8.40078C66.8787 7.95101 65.0512 8.05636 63.2541 8.71684C63.24 8.70671 63.2298 8.69658 63.2177 8.68645Z" fill="white"/>
<path fill-rule="evenodd" clip-rule="evenodd" d="M67.6303 13.8852H67.6263C67.9545 12.4508 68.2847 11.0184 68.6089 9.58195C68.6211 9.52522 68.5927 9.42392 68.5542 9.38948C68.303 9.17472 68.0153 9.0795 67.6931 9.12002C67.606 9.13015 67.5615 9.17067 67.5432 9.26791C67.4966 9.50293 67.45 9.73998 67.3974 9.97297C67.0955 11.2899 66.7936 12.6068 66.4897 13.9237L66.4958 13.9257C66.1676 15.3601 65.8373 16.7925 65.5132 18.229C65.501 18.2857 65.5294 18.387 65.5679 18.4214C65.8191 18.6362 66.1068 18.7334 66.4289 18.6909C66.516 18.6808 66.5606 18.6402 66.5788 18.545C66.6254 18.31 66.672 18.073 66.7247 17.8379C67.0225 16.519 67.3264 15.2021 67.6303 13.8852Z" fill="white"/>
<path fill-rule="evenodd" clip-rule="evenodd" d="M73.9515 20.7453C73.9515 20.7453 65.4017 14.1263 54.9536 20.2347C54.9536 20.2347 54.6659 20.4839 55.0832 20.4981C55.0832 20.4981 63.9896 16.0145 73.8279 20.9985C73.8259 20.9985 74.1278 21.035 73.9515 20.7453Z" fill="white"/>
</svg>
