<svg width="24" height="24" viewBox="0 0 24 24" fill="none" xmlns="http://www.w3.org/2000/svg">
<path fill-rule="evenodd" clip-rule="evenodd" d="M11.989 20C14.1087 20 16.1417 19.1571 17.6406 17.6569C19.1395 16.1566 19.9816 14.1217 19.9816 12C19.9816 9.87827 19.1395 7.84344 17.6406 6.34315C16.1417 4.84286 14.1087 4 11.989 4C9.86919 4 7.83623 4.84286 6.33732 6.34315C4.83842 7.84344 3.99634 9.87827 3.99634 12C3.99634 14.1217 4.83842 16.1566 6.33732 17.6569C7.83623 19.1571 9.86919 20 11.989 20ZM10.6972 9.293C10.5087 9.11084 10.2564 9.01005 9.99441 9.01233C9.73245 9.01461 9.48187 9.11977 9.29663 9.30518C9.11139 9.49059 9.00632 9.7414 9.00405 10.0036C9.00177 10.2658 9.10247 10.5184 9.28446 10.707L10.5763 12L9.28446 13.293C9.18904 13.3852 9.11293 13.4956 9.06057 13.6176C9.00821 13.7396 8.98064 13.8708 8.97949 14.0036C8.97834 14.1364 9.00362 14.2681 9.05385 14.391C9.10409 14.5139 9.17827 14.6255 9.27208 14.7194C9.36588 14.8133 9.47743 14.8875 9.60022 14.9378C9.723 14.9881 9.85456 15.0134 9.98721 15.0123C10.1199 15.0111 10.251 14.9835 10.3729 14.9311C10.4948 14.8787 10.605 14.8025 10.6972 14.707L11.989 13.414L13.2808 14.707C13.4692 14.8892 13.7216 14.99 13.9835 14.9877C14.2455 14.9854 14.4961 14.8802 14.6813 14.6948C14.8665 14.5094 14.9716 14.2586 14.9739 13.9964C14.9762 13.7342 14.8755 13.4816 14.6935 13.293L13.4017 12L14.6935 10.707C14.8755 10.5184 14.9762 10.2658 14.9739 10.0036C14.9716 9.7414 14.8665 9.49059 14.6813 9.30518C14.4961 9.11977 14.2455 9.01461 13.9835 9.01233C13.7216 9.01005 13.4692 9.11084 13.2808 9.293L11.989 10.586L10.6972 9.293Z" fill="#FF3366"/>
</svg>
