<svg width="15" height="15" viewBox="0 0 15 15" fill="none" xmlns="http://www.w3.org/2000/svg">
<path d="M3.75 4.375H11.5625M3.75 6.25C4 6.25 5.10417 6.25 5.625 6.25" stroke="white" stroke-linecap="round"/>
<circle cx="9.0625" cy="9.0625" r="1.6875" stroke="white"/>
<path d="M9.6875 10.9375L10.9375 13.75" stroke="white" stroke-linecap="round"/>
<path d="M8.4375 10.9375L7.1875 13.75" stroke="white" stroke-linecap="round"/>
<path fill-rule="evenodd" clip-rule="evenodd" d="M2.625 2.875H12.375C12.9273 2.875 13.375 3.32272 13.375 3.875V9.875C13.375 10.4273 12.9273 10.875 12.375 10.875H11.875V11.875H12.375C13.4796 11.875 14.375 10.9796 14.375 9.875V3.875C14.375 2.77043 13.4796 1.875 12.375 1.875H2.625C1.52043 1.875 0.625 2.77043 0.625 3.875V9.875C0.625 10.9796 1.52043 11.875 2.625 11.875H6.25V10.875H2.625C2.07272 10.875 1.625 10.4273 1.625 9.875V3.875C1.625 3.32272 2.07272 2.875 2.625 2.875Z" fill="white"/>
</svg>
