<svg width="20" height="20" viewBox="0 0 20 20" fill="none" xmlns="http://www.w3.org/2000/svg">
<path d="M4.91663 6.16667H15.0833V16.1667C15.0833 17.4093 14.0759 18.4167 12.8333 18.4167H7.16663C5.92399 18.4167 4.91663 17.4093 4.91663 16.1667V6.16667Z" stroke="#FF3366" stroke-width="1.5"/>
<rect x="3.25" y="4.08333" width="13.5" height="1.83333" rx="0.916667" stroke="#FF3366" stroke-width="1.5"/>
<path d="M12.4281 3.83333H7.63744C7.78395 3.4513 7.99599 3.03809 8.26919 2.66642C8.77147 1.98311 9.36803 1.58333 9.99996 1.58333C10.6423 1.58333 11.2803 1.99508 11.799 2.67648C12.0892 3.05765 12.299 3.46833 12.4281 3.83333Z" stroke="#FF3366" stroke-width="1.5"/>
<path d="M7.5 9.16667V15M10 9.16667V15M12.5 15V9.16667" stroke="#FF3366" stroke-width="1.5" stroke-linecap="round"/>
</svg>
