<svg width="21" height="20" viewBox="0 0 21 20" fill="none" xmlns="http://www.w3.org/2000/svg">
<path d="M2.0052 10.2458C1.93269 10.1031 1.91068 10.0246 1.90402 10C1.91068 9.97539 1.93269 9.89686 2.0052 9.7542C2.10032 9.56704 2.25193 9.32849 2.46337 9.05321C2.88521 8.50399 3.50982 7.85444 4.29235 7.23326C5.86642 5.98374 7.9915 4.91667 10.2925 4.91667C12.5936 4.91667 14.7186 5.98374 16.2927 7.23326C17.0752 7.85444 17.6998 8.50399 18.1217 9.05321C18.3331 9.32849 18.4847 9.56704 18.5799 9.7542C18.6524 9.89686 18.6744 9.97539 18.681 10C18.6744 10.0246 18.6524 10.1032 18.5799 10.2458C18.4847 10.433 18.3331 10.6715 18.1217 10.9468C17.6998 11.496 17.0752 12.1456 16.2927 12.7668C14.7186 14.0163 12.5936 15.0833 10.2925 15.0833C7.9915 15.0833 5.86642 14.0163 4.29235 12.7668C3.50982 12.1456 2.88521 11.496 2.46337 10.9468C2.25193 10.6715 2.10032 10.433 2.0052 10.2458Z" stroke="#64748B" stroke-width="1.5"/>
<path d="M10.2926 6.66667C8.45735 6.66667 6.96841 8.15973 6.96841 10C6.96841 11.8403 8.45735 13.3333 10.2926 13.3333C12.1278 13.3333 13.6167 11.8403 13.6167 10C13.6167 8.15973 12.1278 6.66667 10.2926 6.66667ZM9.39226 10C8.63048 10 7.97258 9.37501 7.97258 8.57639C7.97258 7.81251 8.59586 7.15278 9.39226 7.15278C10.154 7.15278 10.8119 7.77778 10.8119 8.57639C10.8119 9.37501 10.1887 10 9.39226 10Z" fill="#64748B"/>
</svg>
