<svg width="20" height="20" viewBox="0 0 20 20" fill="none" xmlns="http://www.w3.org/2000/svg">
<path fill-rule="evenodd" clip-rule="evenodd" d="M16.6286 11.6667C15.8847 14.635 13.1991 16.8333 10 16.8333C6.80096 16.8333 4.11536 14.635 3.37137 11.6667H1.83337C2.60549 15.4704 5.96841 18.3333 10 18.3333C14.0316 18.3333 17.3945 15.4704 18.1666 11.6667H16.6286ZM3.37137 8.33332C4.11536 5.36494 6.80097 3.16666 10 3.16666C13.1991 3.16666 15.8847 5.36494 16.6286 8.33332H18.1666C17.3945 4.52959 14.0316 1.66666 10 1.66666C5.96841 1.66666 2.60549 4.52959 1.83337 8.33332H3.37137Z" fill="#64748B"/>
<path d="M15 6.66668L17.5 8.33334L18.75 5.83334" stroke="#64748B" stroke-width="1.5" stroke-linecap="round" stroke-linejoin="round"/>
<path d="M5 13.3333L2.5 11.6667L1.25 14.1667" stroke="#64748B" stroke-width="1.5" stroke-linecap="round" stroke-linejoin="round"/>
</svg>
