<svg width="24" height="24" viewBox="0 0 24 24" fill="none" xmlns="http://www.w3.org/2000/svg">
<path d="M3.7198 18.9863C6.24568 17.5586 9.09865 16.8104 12.0001 16.8148C15.0093 16.8148 17.8344 17.6032 20.2804 18.9863M15.6112 9.59258C15.6112 10.5503 15.2307 11.4688 14.5535 12.146C13.8763 12.8232 12.9578 13.2037 12.0001 13.2037C11.0424 13.2037 10.1239 12.8232 9.44664 12.146C8.76943 11.4688 8.38897 10.5503 8.38897 9.59258C8.38897 8.63486 8.76943 7.71636 9.44664 7.03914C10.1239 6.36193 11.0424 5.98147 12.0001 5.98147C12.9578 5.98147 13.8763 6.36193 14.5535 7.03914C15.2307 7.71636 15.6112 8.63486 15.6112 9.59258ZM22.8334 12C22.8334 13.4226 22.5532 14.8314 22.0088 16.1457C21.4644 17.4601 20.6664 18.6543 19.6604 19.6603C18.6544 20.6663 17.4602 21.4643 16.1458 22.0087C14.8315 22.5531 13.4227 22.8333 12.0001 22.8333C10.5774 22.8333 9.16871 22.5531 7.85434 22.0087C6.53998 21.4643 5.34573 20.6663 4.33976 19.6603C3.33379 18.6543 2.53581 17.4601 1.99139 16.1457C1.44696 14.8314 1.16675 13.4226 1.16675 12C1.16675 9.12681 2.30811 6.37131 4.33976 4.33967C6.3714 2.30802 9.1269 1.16666 12.0001 1.16666C14.8733 1.16666 17.6288 2.30802 19.6604 4.33967C21.692 6.37131 22.8334 9.12681 22.8334 12Z" stroke="white" stroke-width="1.5" stroke-linecap="round" stroke-linejoin="round"/>
</svg>
